<svg width="24" height="25" viewBox="0 0 24 25" fill="none" xmlns="http://www.w3.org/2000/svg">
<path d="M12 2.43291C15.2063 2.43291 15.5859 2.44697 16.8469 2.50322C18.0188 2.55479 18.6516 2.75166 19.0734 2.91572C19.6313 3.13135 20.0344 3.39385 20.4516 3.81104C20.8734 4.23291 21.1313 4.63135 21.3469 5.18916C21.5109 5.61104 21.7078 6.24854 21.7594 7.41572C21.8156 8.68135 21.8297 9.06104 21.8297 12.2626C21.8297 15.4688 21.8156 15.8485 21.7594 17.1095C21.7078 18.2813 21.5109 18.9142 21.3469 19.336C21.1313 19.8938 20.8687 20.297 20.4516 20.7142C20.0297 21.136 19.6313 21.3938 19.0734 21.6095C18.6516 21.7735 18.0141 21.9704 16.8469 22.022C15.5813 22.0782 15.2016 22.0923 12 22.0923C8.79375 22.0923 8.41406 22.0782 7.15313 22.022C5.98125 21.9704 5.34844 21.7735 4.92656 21.6095C4.36875 21.3938 3.96563 21.1313 3.54844 20.7142C3.12656 20.2923 2.86875 19.8938 2.65313 19.336C2.48906 18.9142 2.29219 18.2767 2.24063 17.1095C2.18438 15.8438 2.17031 15.4642 2.17031 12.2626C2.17031 9.05635 2.18438 8.67666 2.24063 7.41572C2.29219 6.24385 2.48906 5.61104 2.65313 5.18916C2.86875 4.63135 3.13125 4.22822 3.54844 3.81104C3.97031 3.38916 4.36875 3.13135 4.92656 2.91572C5.34844 2.75166 5.98594 2.55479 7.15313 2.50322C8.41406 2.44697 8.79375 2.43291 12 2.43291ZM12 0.271973C8.74219 0.271973 8.33438 0.286035 7.05469 0.342285C5.77969 0.398535 4.90313 0.604785 4.14375 0.900098C3.35156 1.20947 2.68125 1.61729 2.01563 2.2876C1.34531 2.95322 0.9375 3.62354 0.628125 4.41104C0.332812 5.1751 0.126563 6.04697 0.0703125 7.32197C0.0140625 8.60635 0 9.01416 0 12.272C0 15.5298 0.0140625 15.9376 0.0703125 17.2173C0.126563 18.4923 0.332812 19.3688 0.628125 20.1282C0.9375 20.9204 1.34531 21.5907 2.01563 22.2563C2.68125 22.922 3.35156 23.3345 4.13906 23.6392C4.90313 23.9345 5.775 24.1407 7.05 24.197C8.32969 24.2532 8.7375 24.2673 11.9953 24.2673C15.2531 24.2673 15.6609 24.2532 16.9406 24.197C18.2156 24.1407 19.0922 23.9345 19.8516 23.6392C20.6391 23.3345 21.3094 22.922 21.975 22.2563C22.6406 21.5907 23.0531 20.9204 23.3578 20.1329C23.6531 19.3688 23.8594 18.497 23.9156 17.222C23.9719 15.9423 23.9859 15.5345 23.9859 12.2767C23.9859 9.01885 23.9719 8.61104 23.9156 7.33135C23.8594 6.05635 23.6531 5.17979 23.3578 4.42041C23.0625 3.62354 22.6547 2.95322 21.9844 2.2876C21.3188 1.62197 20.6484 1.20947 19.8609 0.904785C19.0969 0.609473 18.225 0.403223 16.95 0.346973C15.6656 0.286035 15.2578 0.271973 12 0.271973Z" fill="#9CA3AF"/>
<path d="M12 6.10791C8.59688 6.10791 5.83594 8.86885 5.83594 12.272C5.83594 15.6751 8.59688 18.436 12 18.436C15.4031 18.436 18.1641 15.6751 18.1641 12.272C18.1641 8.86885 15.4031 6.10791 12 6.10791ZM12 16.2704C9.79219 16.2704 8.00156 14.4798 8.00156 12.272C8.00156 10.0642 9.79219 8.27354 12 8.27354C14.2078 8.27354 15.9984 10.0642 15.9984 12.272C15.9984 14.4798 14.2078 16.2704 12 16.2704Z" fill="#9CA3AF"/>
<path d="M19.8469 5.86411C19.8469 6.66099 19.2 7.30318 18.4078 7.30318C17.6109 7.30318 16.9688 6.6563 16.9688 5.86411C16.9688 5.06724 17.6156 4.42505 18.4078 4.42505C19.2 4.42505 19.8469 5.07192 19.8469 5.86411Z" fill="#9CA3AF"/>
</svg>
