<svg width="24" height="25" viewBox="0 0 24 25" fill="none" xmlns="http://www.w3.org/2000/svg">
<g clip-path="url(#clip0_29_48617)">
<path d="M22.2234 0.271973H1.77187C0.792187 0.271973 0 1.04541 0 2.00166V22.5376C0 23.4938 0.792187 24.272 1.77187 24.272H22.2234C23.2031 24.272 24 23.4938 24 22.5423V2.00166C24 1.04541 23.2031 0.271973 22.2234 0.271973ZM7.12031 20.7235H3.55781V9.26728H7.12031V20.7235ZM5.33906 7.70635C4.19531 7.70635 3.27188 6.78291 3.27188 5.64385C3.27188 4.50479 4.19531 3.58135 5.33906 3.58135C6.47813 3.58135 7.40156 4.50479 7.40156 5.64385C7.40156 6.77822 6.47813 7.70635 5.33906 7.70635ZM20.4516 20.7235H16.8937V15.1548C16.8937 13.8282 16.8703 12.1173 15.0422 12.1173C13.1906 12.1173 12.9094 13.5657 12.9094 15.061V20.7235H9.35625V9.26728H12.7687V10.8329H12.8156C13.2891 9.93291 14.4516 8.98135 16.1813 8.98135C19.7859 8.98135 20.4516 11.3532 20.4516 14.4376V20.7235Z" fill="#9CA3AF"/>
</g>
<defs>
<clipPath id="clip0_29_48617">
<rect width="24" height="24" fill="white" transform="translate(0 0.271973)"/>
</clipPath>
</defs>
</svg>
