<svg width="92" height="18" viewBox="0 0 92 18" fill="none" xmlns="http://www.w3.org/2000/svg">
<path d="M32.0203 12.8155H19.5496V17.1036H37.2531C37.2531 14.7346 34.911 12.8155 32.0203 12.8155Z" fill="#3B6AC8"/>
<path d="M32.2573 6.8425H4.92456V11.1306H27.5934C30.1688 11.1306 32.2573 9.21037 32.2573 6.8425Z" fill="#3B6AC8"/>
<path d="M22.6688 0.869415H0V5.15756H27.3328C27.3328 2.78853 25.2442 0.869415 22.6688 0.869415Z" fill="#3B6AC8"/>
<path d="M52.9574 4.01674L54.6622 1.21912H57.9188L52.0832 10.6392V16.7809H49.1325V10.6392L43.2532 1.21912H46.5972L48.3239 4.0386C49.7227 6.37723 50.4876 7.68862 50.6625 7.97275C51.0559 7.27334 51.8209 5.96196 52.9574 4.01674Z" fill="#3B6AC8"/>
<path d="M64.9481 10.7704V8.38802H71.8984V16.7809H69.7565L69.3412 14.7264C68.2047 16.3438 66.5217 17.1306 64.2705 17.1306C62.0193 17.1306 60.2271 16.3875 58.872 14.9012C57.5169 13.415 56.8393 11.4479 56.8393 9C56.8393 6.55208 57.5169 4.58501 58.9157 3.07691C60.2926 1.61253 62.1723 0.869415 64.5328 0.869415C66.478 0.869415 68.0954 1.37211 69.4068 2.35565C70.6744 3.36105 71.4613 4.69429 71.7235 6.39909H68.6855C68.4669 5.48112 67.9861 4.75986 67.243 4.2353C66.4999 3.71075 65.6037 3.44847 64.5546 3.44847C63.1121 3.44847 61.9974 3.95117 61.1669 4.93471C60.3363 5.9401 59.9211 7.2952 59.9211 9C59.9211 10.7267 60.3363 12.0818 61.1887 13.0653C62.0193 14.0707 63.1777 14.5515 64.6639 14.5515C65.8223 14.5515 66.8277 14.2018 67.6582 13.5024C68.4888 12.803 68.9259 11.9069 69.0133 10.7704H64.9481Z" fill="#3B6AC8"/>
<path d="M77.1581 16.7809H74.2075V1.21912H77.1581V16.7809Z" fill="#3B6AC8"/>
<path d="M78.6682 1.21912H91.6072V3.86374H86.624V16.7809H83.6515V3.86374H78.6682V1.21912Z" fill="#3B6AC8"/>
</svg>
