<svg width="64" height="12" viewBox="0 0 64 12" fill="none" xmlns="http://www.w3.org/2000/svg">
<path d="M22.5212 8.58102H13.9448V11.4818H26.1198C26.1198 9.87922 24.5092 8.58102 22.5212 8.58102Z" fill="white"/>
<path d="M22.684 4.54053H3.88672V7.44128H19.4765C21.2476 7.44128 22.684 6.14229 22.684 4.54053Z" fill="white"/>
<path d="M16.0898 0.5H0.5V3.40075H19.2972C19.2972 1.7982 17.8609 0.5 16.0898 0.5Z" fill="white"/>
<path d="M36.9199 2.62903L38.0923 0.73656H40.3319L36.3186 7.10887V11.2634H34.2894V7.10887L30.2461 0.73656H32.5458L33.7333 2.64382C34.6953 4.22581 35.2214 5.1129 35.3416 5.30511C35.6122 4.83199 36.1383 3.94489 36.9199 2.62903Z" fill="white"/>
<path d="M45.1661 7.19758V5.58602H49.9459V11.2634H48.4729L48.1873 9.87366C47.4057 10.9677 46.2483 11.5 44.7001 11.5C43.1519 11.5 41.9194 10.9973 40.9874 9.99194C40.0555 8.98656 39.5895 7.65591 39.5895 6C39.5895 4.34409 40.0555 3.01344 41.0175 1.99328C41.9644 1.00269 43.2571 0.5 44.8805 0.5C46.2182 0.5 47.3305 0.840054 48.2324 1.50538C49.1042 2.18548 49.6453 3.08737 49.8257 4.24059H47.7364C47.5861 3.61962 47.2554 3.13172 46.7443 2.77688C46.2333 2.42204 45.617 2.24462 44.8955 2.24462C43.9035 2.24462 43.1369 2.58468 42.5657 3.25C41.9945 3.93011 41.7089 4.84677 41.7089 6C41.7089 7.16801 41.9945 8.08468 42.5807 8.75C43.1519 9.43011 43.9485 9.75538 44.9707 9.75538C45.7673 9.75538 46.4587 9.51882 47.0299 9.0457C47.6011 8.57258 47.9017 7.9664 47.9618 7.19758H45.1661Z" fill="white"/>
<path d="M53.5631 11.2634H51.5339V0.73656H53.5631V11.2634Z" fill="white"/>
<path d="M54.6017 0.73656H63.5001V2.52554H60.073V11.2634H58.0288V2.52554H54.6017V0.73656Z" fill="white"/>
</svg>
